<svg width="30" height="29" viewBox="0 0 30 29" fill="none" xmlns="http://www.w3.org/2000/svg">
<path fill-rule="evenodd" clip-rule="evenodd" d="M14.8668 0C6.65288 0 0 6.65288 0 14.8668C0 21.4453 4.25561 27.0018 10.1651 28.9716C10.9085 29.1017 11.1872 28.6557 11.1872 28.2654C11.1872 27.9123 11.1687 26.7416 11.1687 25.4965C7.43338 26.1841 6.46704 24.5859 6.16971 23.7496C6.00245 23.3222 5.2777 22.0028 4.64586 21.6497C4.12553 21.371 3.38219 20.6834 4.62728 20.6648C5.79804 20.6462 6.63429 21.7426 6.91304 22.1886C8.25105 24.4372 10.3881 23.8054 11.243 23.4151C11.3731 22.4488 11.7633 21.7984 12.1907 21.4267C8.88289 21.055 5.42637 19.7728 5.42637 14.0863C5.42637 12.4695 6.00245 11.1315 6.95021 10.0908C6.80154 9.71914 6.28121 8.1953 7.09888 6.15112C7.09888 6.15112 8.34397 5.76087 11.1872 7.67497C12.3766 7.34046 13.6403 7.17321 14.9039 7.17321C16.1676 7.17321 17.4313 7.34046 18.6206 7.67497C21.4639 5.74229 22.709 6.15112 22.709 6.15112C23.5266 8.1953 23.0063 9.71914 22.8576 10.0908C23.8054 11.1315 24.3815 12.4509 24.3815 14.0863C24.3815 19.7914 20.9064 21.055 17.5985 21.4267C18.1374 21.8913 18.602 22.7833 18.602 24.1771C18.602 26.1655 18.5835 27.7637 18.5835 28.2654C18.5835 28.6557 18.8622 29.1203 19.6055 28.9716C22.5569 27.9753 25.1214 26.0785 26.9383 23.5482C28.7551 21.018 29.7327 17.9817 29.7335 14.8668C29.7335 6.65288 23.0806 0 14.8668 0Z" fill="#AB5719"/>
</svg>
