<svg width="23" height="23" viewBox="0 0 23 23" fill="none" xmlns="http://www.w3.org/2000/svg">
<path d="M11.5 -3.05176e-05C10.9917 -3.05176e-05 10.5041 0.201903 10.1447 0.561347C9.78525 0.920792 9.58332 1.4083 9.58332 1.91663V9.58329H1.91666C1.40833 9.58329 0.920822 9.78522 0.561378 10.1447C0.201934 10.5041 0 10.9916 0 11.5C0 12.0083 0.201934 12.4958 0.561378 12.8552C0.920822 13.2147 1.40833 13.4166 1.91666 13.4166H9.58332V21.0833C9.58332 21.5916 9.78525 22.0791 10.1447 22.4386C10.5041 22.798 10.9917 22.9999 11.5 22.9999C12.0083 22.9999 12.4958 22.798 12.8553 22.4386C13.2147 22.0791 13.4166 21.5916 13.4166 21.0833V13.4166H21.0833C21.5916 13.4166 22.0791 13.2147 22.4386 12.8552C22.798 12.4958 23 12.0083 23 11.5C23 10.9916 22.798 10.5041 22.4386 10.1447C22.0791 9.78522 21.5916 9.58329 21.0833 9.58329H13.4166V1.91663C13.4166 1.4083 13.2147 0.920792 12.8553 0.561347C12.4958 0.201903 12.0083 -3.05176e-05 11.5 -3.05176e-05Z" fill="#AB5719"/>
</svg>
