<svg width="6" height="21" viewBox="0 0 6 21" fill="none" xmlns="http://www.w3.org/2000/svg">
<path d="M3 7.3333C4.65833 7.3333 6 8.67497 6 10.3333C6 11.9916 4.65833 13.3333 3 13.3333C1.34167 13.3333 0 11.9916 0 10.3333C0 8.67497 1.34167 7.3333 3 7.3333ZM0 2.99997C0 4.6583 1.34167 5.99997 3 5.99997C4.65833 5.99997 6 4.6583 6 2.99997C6 1.34164 4.65833 -3.05176e-05 3 -3.05176e-05C1.34167 -3.05176e-05 0 1.34164 0 2.99997ZM0 17.6666C0 19.325 1.34167 20.6666 3 20.6666C4.65833 20.6666 6 19.325 6 17.6666C6 16.0083 4.65833 14.6666 3 14.6666C1.34167 14.6666 0 16.0083 0 17.6666Z" fill="#AB5719"/>
</svg>
