<svg width="29" height="19" viewBox="0 0 29 19" fill="none" xmlns="http://www.w3.org/2000/svg">
<path fill-rule="evenodd" clip-rule="evenodd" d="M0 1.2268C0 0.901432 0.163679 0.589393 0.455031 0.359324C0.746382 0.129256 1.14154 5.52297e-06 1.55357 5.52297e-06H27.4464C27.6504 5.51958e-06 27.8525 0.0317373 28.041 0.0933894C28.2294 0.155041 28.4007 0.245406 28.545 0.359324C28.6892 0.473243 28.8037 0.608483 28.8817 0.757324C28.9598 0.906166 29 1.06569 29 1.2268C29 1.3879 28.9598 1.54743 28.8817 1.69627C28.8037 1.84511 28.6892 1.98035 28.545 2.09427C28.4007 2.20819 28.2294 2.29855 28.041 2.36021C27.8525 2.42186 27.6504 2.45359 27.4464 2.45359H1.55357C1.14154 2.45359 0.746382 2.32434 0.455031 2.09427C0.163679 1.8642 0 1.55216 0 1.2268ZM0 9.40541C0 9.08004 0.163679 8.76801 0.455031 8.53794C0.746382 8.30787 1.14154 8.17862 1.55357 8.17862H27.4464C27.8585 8.17862 28.2536 8.30787 28.545 8.53794C28.8363 8.76801 29 9.08004 29 9.40541C29 9.73078 28.8363 10.0428 28.545 10.2729C28.2536 10.503 27.8585 10.6322 27.4464 10.6322H1.55357C1.14154 10.6322 0.746382 10.503 0.455031 10.2729C0.163679 10.0428 0 9.73078 0 9.40541ZM1.55357 16.3572C1.14154 16.3572 0.746382 16.4865 0.455031 16.7166C0.163679 16.9466 0 17.2587 0 17.584C0 17.9094 0.163679 18.2214 0.455031 18.4515C0.746382 18.6816 1.14154 18.8108 1.55357 18.8108H27.4464C27.8585 18.8108 28.2536 18.6816 28.545 18.4515C28.8363 18.2214 29 17.9094 29 17.584C29 17.2587 28.8363 16.9466 28.545 16.7166C28.2536 16.4865 27.8585 16.3572 27.4464 16.3572H1.55357Z" fill="#896161"/>
</svg>
