<svg width="30" height="30" viewBox="0 0 30 30" fill="none" xmlns="http://www.w3.org/2000/svg">
<path d="M4.99994 8.74998H24.9999" stroke="#AB5719" stroke-width="2.83503" stroke-linecap="round" stroke-linejoin="round"/>
<path d="M12.5 13.75V21.25" stroke="#AB5719" stroke-width="2.83503" stroke-linecap="round" stroke-linejoin="round"/>
<path d="M17.5001 13.75V21.25" stroke="#AB5719" stroke-width="2.83503" stroke-linecap="round" stroke-linejoin="round"/>
<path d="M6.25006 8.74998L7.50006 23.75C7.50006 24.413 7.76345 25.0489 8.23229 25.5177C8.70113 25.9866 9.33702 26.25 10.0001 26.25H20.0001C20.6631 26.25 21.299 25.9866 21.7678 25.5177C22.2367 25.0489 22.5001 24.413 22.5001 23.75L23.7501 8.74998" stroke="#AB5719" stroke-width="2.83503" stroke-linecap="round" stroke-linejoin="round"/>
<path d="M11.25 8.74997V4.99997C11.25 4.66845 11.3817 4.35051 11.6161 4.11609C11.8505 3.88167 12.1685 3.74997 12.5 3.74997H17.5C17.8315 3.74997 18.1495 3.88167 18.3839 4.11609C18.6183 4.35051 18.75 4.66845 18.75 4.99997V8.74997" stroke="#AB5719" stroke-width="2.83503" stroke-linecap="round" stroke-linejoin="round"/>
</svg>
