<svg width="256" height="256" viewBox="0 0 256 256" fill="none" xmlns="http://www.w3.org/2000/svg">
<path d="M26.94 76.4874C28.0002 77.1077 29.1666 77.4007 30.3135 77.4007C32.5931 77.4007 34.8205 76.2272 36.0666 74.114C45.2735 58.4344 58.4266 45.2743 74.1132 36.0611C77.2866 34.1947 78.3468 30.108 76.4796 26.9346C74.6132 23.7549 70.5328 22.708 67.3531 24.5611C49.7196 34.9345 34.9267 49.7274 24.5666 67.3609C22.7073 70.5343 23.7674 74.621 26.94 76.4874Z" fill="#AB5719"/>
<path d="M60.6406 13.0745C63.8203 11.2143 64.8804 7.12764 63.014 3.94798C61.1477 0.774557 57.0672 -0.278561 53.8875 1.58158C32.3345 14.2479 14.2479 32.3283 1.58081 53.8813C-0.285584 57.0609 0.774567 61.1476 3.95424 63.0148C5.01439 63.6351 6.18078 63.9281 7.32062 63.9281C9.60733 63.9281 11.8339 62.7547 13.0807 60.6414C24.594 41.0415 41.04 24.5947 60.6406 13.0745Z" fill="#AB5719"/>
<path d="M198.74 255.333C199.887 255.333 201.053 255.04 202.113 254.413C223.666 241.753 241.753 223.666 254.42 202.113C256.286 198.934 255.22 194.847 252.047 192.987C248.867 191.127 244.786 192.187 242.92 195.353C231.407 214.953 214.954 231.4 195.354 242.919C192.18 244.786 191.12 248.866 192.988 252.046C194.233 254.16 196.459 255.333 198.74 255.333Z" fill="#AB5719"/>
<path d="M185.273 232.347C186.42 232.347 187.58 232.054 188.646 231.433C206.28 221.067 221.073 206.267 231.433 188.634C233.293 185.46 232.233 181.374 229.059 179.513C225.886 177.653 221.799 178.706 219.933 181.887C210.726 197.56 197.566 210.72 181.886 219.933C178.713 221.8 177.652 225.887 179.513 229.06C180.759 231.173 182.986 232.347 185.273 232.347Z" fill="#AB5719"/>
</svg>
