<svg width="400" height="400" viewBox="0 0 400 400" fill="none" xmlns="http://www.w3.org/2000/svg">
<g clip-path="url(#clip0_6_21)">
<path d="M367.079 90.0417C365.059 86.9682 360.926 86.1151 357.846 88.1417C354.772 90.1682 353.925 94.308 355.953 97.3815C376.045 127.855 386.666 163.341 386.666 200.001C386.666 302.927 302.926 386.666 200 386.666C97.0745 386.666 13.3343 302.927 13.3343 200.001C13.3343 97.0682 97.0737 13.3359 200 13.3359C251.62 13.3359 300.865 34.649 335.839 71.8621L321.639 110.882L315.379 108.609C311.926 107.335 308.092 109.129 306.832 112.588L293.152 150.175C292.546 151.835 292.626 153.668 293.372 155.275C294.119 156.875 295.472 158.115 297.133 158.722L322.193 167.842C322.946 168.115 323.713 168.249 324.472 168.249C327.193 168.249 329.752 166.562 330.732 163.862L344.419 126.27C345.026 124.609 344.946 122.777 344.199 121.177C343.452 119.57 342.099 118.33 340.432 117.73L334.166 115.443L372.926 8.9437C374.186 5.49059 372.406 1.66405 368.946 0.403902C365.499 -0.849216 361.66 0.924212 360.406 4.3906L340.927 57.8973C303.793 20.9819 253.04 0.00234178 200 0.00234178C89.7206 0.00234178 0.000793457 89.7221 0.000793457 200.001C0.000793457 310.28 89.7206 400 200 400C310.279 400 399.998 310.28 399.998 200.001C399.998 160.721 388.612 122.702 367.079 90.0417ZM320.486 153.034L307.959 148.474L317.079 123.414L329.613 127.974L320.486 153.034Z" fill="#AB5719"/>
<path d="M200 213.334C207.353 213.334 213.333 207.354 213.333 200C213.333 192.647 207.353 186.667 200 186.667C192.647 186.667 186.666 192.647 186.666 200C186.667 207.354 192.647 213.334 200 213.334Z" fill="#AB5719"/>
<path d="M200 253.334C229.406 253.334 253.333 229.407 253.333 200C253.333 170.587 229.406 146.667 200 146.667C170.593 146.667 146.666 170.587 146.666 200C146.667 229.407 170.594 253.334 200 253.334ZM200 160.001C222.06 160.001 239.999 177.941 239.999 200.001C239.999 222.054 222.06 240.001 200 240.001C177.94 240.001 160 222.054 160 200.001C160 177.941 177.94 160.001 200 160.001Z" fill="#AB5719"/>
</g>
<defs>
<clipPath id="clip0_6_21">
<rect width="400" height="400" fill="white"/>
</clipPath>
</defs>
</svg>
